<?xml version="1.0" encoding="utf-8"?>
<!-- Generator: Adobe Illustrator 24.1.2, SVG Export Plug-In . SVG Version: 6.00 Build 0)  -->
<svg version="1.1" id="Capa_1" xmlns="http://www.w3.org/2000/svg" xmlns:xlink="http://www.w3.org/1999/xlink" x="0px" y="0px"
	 viewBox="0 0 66.96 53.04" style="enable-background:new 0 0 66.96 53.04;" xml:space="preserve">
<style type="text/css">
	.st0{fill:#FFFFFF;}
	.st1{fill:#5C5C5C;}
</style>
<path class="st0" d="M0,53.04C0,35.36,0,17.68,0,0c22.32,0,44.64,0,66.96,0c0,17.68,0,35.36,0,53.04
	C44.64,53.04,22.32,53.04,0,53.04z M17.54,21.92c-0.4,0-0.87,0-1.34,0c-1.98,0.02-2.57,0.6-2.57,2.55c0,7.36,0,14.72,0,22.08
	c0,1.84,0.6,2.47,2.4,2.47c11.59,0.01,23.18,0.01,34.77,0c1.73,0,2.33-0.63,2.34-2.4c0.01-2.71,0-5.41,0-8.12
	c0-4.78,0.01-9.55-0.01-14.33c0-1.58-0.67-2.23-2.25-2.27c-0.59-0.01-1.18,0-1.82,0c-0.05-0.52-0.08-0.91-0.11-1.3
	c-0.26-3.43-1.19-6.63-3.05-9.55c-3.96-6.24-11.05-8.92-17.44-6.41c-5.42,2.13-8.5,6.38-10,11.84
	C18.01,18.22,17.86,20.01,17.54,21.92z"/>
<path class="st1" d="M17.54,21.92c0.32-1.91,0.47-3.71,0.94-5.42c1.5-5.46,4.58-9.71,10-11.84c6.39-2.51,13.48,0.16,17.44,6.41
	c1.85,2.92,2.79,6.13,3.05,9.55c0.03,0.39,0.07,0.77,0.11,1.3c0.64,0,1.23-0.01,1.82,0c1.58,0.04,2.24,0.68,2.25,2.27
	c0.01,4.78,0.01,9.55,0.01,14.33c0,2.71,0.01,5.41,0,8.12c-0.01,1.77-0.62,2.4-2.34,2.4c-11.59,0.01-23.18,0.01-34.77,0
	c-1.8,0-2.4-0.63-2.4-2.47c0-7.36,0-14.72,0-22.08c0-1.95,0.59-2.54,2.57-2.55C16.67,21.92,17.14,21.92,17.54,21.92z M22.29,21.84
	c7.38,0,14.76,0,22.28,0c-0.16-4.87-1.74-8.94-5.69-11.86c-1.96-1.45-4.19-2.12-6.64-1.75C26.42,9.11,21.63,15.64,22.29,21.84z
	 M34.72,37.51c0,0-0.01,0-0.01,0c0-0.64-0.08-1.29,0.03-1.91c0.09-0.48,0.31-1.03,0.65-1.36c1.21-1.16,1.35-2.86,0.23-4.04
	c-1.06-1.13-2.86-1.13-3.95-0.02c-1.14,1.16-1.02,2.84,0.19,4.04c0.34,0.34,0.58,0.9,0.61,1.38c0.08,1.31,0.03,2.63,0.03,3.94
	c0,0.8,0.43,1.17,1.19,1.16c0.73-0.02,1.07-0.42,1.04-1.16C34.7,38.86,34.72,38.19,34.72,37.51z"/>
<path class="st0" d="M22.29,21.84c-0.66-6.2,4.13-12.73,9.95-13.6c2.45-0.37,4.68,0.3,6.64,1.75c3.95,2.92,5.53,6.99,5.69,11.86
	C37.05,21.84,29.67,21.84,22.29,21.84z"/>
<path class="st0" d="M34.72,37.51c0,0.68-0.02,1.35,0.01,2.03c0.03,0.74-0.31,1.14-1.04,1.16c-0.76,0.02-1.19-0.36-1.19-1.16
	c0-1.31,0.05-2.63-0.03-3.94c-0.03-0.48-0.27-1.05-0.61-1.38c-1.21-1.2-1.33-2.88-0.19-4.04c1.09-1.12,2.89-1.11,3.95,0.02
	c1.12,1.18,0.98,2.88-0.23,4.04c-0.34,0.33-0.56,0.88-0.65,1.36c-0.11,0.62-0.03,1.27-0.03,1.91
	C34.71,37.51,34.71,37.51,34.72,37.51z"/>
</svg>
