<?xml version="1.0" encoding="utf-8"?>
<!-- Generator: Adobe Illustrator 24.1.2, SVG Export Plug-In . SVG Version: 6.00 Build 0)  -->
<svg version="1.1" id="Capa_1" xmlns="http://www.w3.org/2000/svg" xmlns:xlink="http://www.w3.org/1999/xlink" x="0px" y="0px"
	 viewBox="0 0 67 53" style="enable-background:new 0 0 67 53;" xml:space="preserve">
<style type="text/css">
	.st0{fill:#FFFFFF;}
	.st1{fill:#5C5C5C;}
</style>
<path class="st0" d="M67,53c-22.3,0-44.61,0-67,0C0,35.4,0,17.77,0,0c22.27,0,44.64,0,67,0C67,17.61,67,35.29,67,53z M32.99,48
	c5.48,0,10.98,0.2,16.45-0.13c1.59-0.1,3.95-1.36,4.47-2.68c1.47-3.68,1.57-7.84-1.88-10.53c-3.31-2.59-7.08-4.01-11.38-1.16
	c-4.35,2.88-9.25,3.09-13.62,0.14c-4.44-3-8.31-1.51-11.99,0.88c-3.62,2.35-3.42,6.21-2.65,9.92c0.77,3.72,3.72,3.62,6.65,3.58
	C23.69,47.96,28.34,48.01,32.99,48z M33.18,5.23c-7.13,0.12-12.91,6.07-12.91,13.28c0,7.44,6.06,13.47,13.36,13.31
	c7.13-0.15,13.01-6.15,13-13.26C46.63,11.2,40.47,5.1,33.18,5.23z"/>
<path class="st1" d="M32.99,48.01c-4.65,0-9.31-0.05-13.96,0.02c-2.93,0.04-5.88,0.15-6.65-3.58c-0.77-3.71-0.97-7.57,2.65-9.92
	c3.69-2.39,7.55-3.87,11.99-0.88c4.37,2.95,9.27,2.75,13.62-0.14c4.3-2.85,8.07-1.43,11.38,1.16c3.45,2.69,3.34,6.85,1.88,10.53
	c-0.53,1.32-2.88,2.58-4.47,2.68C43.97,48.21,38.48,48,32.99,48.01z"/>
<path class="st1" d="M33.18,5.23c7.29-0.12,13.45,5.97,13.45,13.33c0,7.11-5.87,13.11-13,13.26c-7.3,0.16-13.35-5.87-13.36-13.31
	C20.27,11.29,26.04,5.35,33.18,5.23z"/>
</svg>
